<?xml version="1.0" encoding="UTF-8" standalone="no"?>
<!DOCTYPE svg PUBLIC "-//W3C//DTD SVG 1.1//EN" "http://www.w3.org/Graphics/SVG/1.1/DTD/svg11.dtd">
<svg width="100%" height="100%" viewBox="0 0 1024 268" version="1.1" xmlns="http://www.w3.org/2000/svg" xmlns:xlink="http://www.w3.org/1999/xlink" xml:space="preserve" xmlns:serif="http://www.serif.com/" style="fill-rule:evenodd;clip-rule:evenodd;stroke-linecap:round;stroke-linejoin:round;stroke-miterlimit:1.5;">
    <g transform="matrix(1,0,0,1,-1504.58,0)">
        <g id="Artboard1" transform="matrix(1,0,0,0.446667,1504.58,0)">
            <rect x="0" y="0" width="1024" height="600" style="fill:none;"/>
            <g transform="matrix(0.758772,0,0,1.82108,564.837,-333.235)">
                <path d="M453,341.5C453,318.596 433.065,300 408.511,300L131.489,300C106.935,300 87,318.596 87,341.5C87,364.404 106.935,383 131.489,383L408.511,383C433.065,383 453,364.404 453,341.5Z" style="fill:rgb(250,237,205);"/>
            </g>
            <g transform="matrix(0.499021,0,0,1.11721,583.566,19.9104)">
                <text x="148px" y="278px" style="font-family:'HappyTime', 'Happy Time';font-style:italic;font-size:138.552px;fill:rgb(212,163,115);">projects</text>
            </g>
            <g transform="matrix(0.499021,0,0,1.11721,51.4976,-136.261)">
                <text x="148px" y="278px" style="font-family:'HappyTime', 'Happy Time';font-style:italic;font-size:138.552px;fill:rgb(233,237,201);">Hello ag<tspan x="626.282px 695.558px " y="278px 278px ">ai</tspan>n,</text>
            </g>
            <g transform="matrix(0.429566,-0.630734,0.281728,0.961715,506.604,550.466)">
                <path d="M815.997,149.168C815.997,112.097 819.428,82 823.654,82C827.88,82 831.311,112.097 831.311,149.168C857.524,122.955 881.232,104.099 884.22,107.087C887.208,110.076 868.352,133.783 842.139,159.997C879.21,159.997 909.307,163.428 909.307,167.654C909.307,171.88 879.21,175.311 842.139,175.311C868.352,201.524 887.208,225.232 884.22,228.22C881.232,231.208 857.524,212.352 831.311,186.139C831.311,223.21 827.88,253.307 823.654,253.307C819.428,253.307 815.997,223.21 815.997,186.139C789.783,212.352 766.076,231.208 763.087,228.22C760.099,225.232 778.955,201.524 805.168,175.311C768.097,175.311 738,171.88 738,167.654C738,163.428 768.097,159.997 805.168,159.997C778.955,133.783 760.099,110.076 763.087,107.087C766.076,104.099 789.783,122.955 815.997,149.168Z" style="fill:rgb(233,237,201);"/>
            </g>
            <g transform="matrix(0.473106,-0.249408,0.106096,1.00874,-293.675,360.072)">
                <path d="M818.475,148.327C818.475,111.72 820.796,82 823.654,82C826.512,82 828.832,111.72 828.832,148.327C847.136,116.624 864.005,92.046 866.48,93.475C868.956,94.904 856.105,121.803 837.802,153.506C869.504,135.202 896.403,122.352 897.832,124.827C899.261,127.302 874.683,144.172 842.98,162.475C879.587,162.475 909.307,164.796 909.307,167.654C909.307,170.512 879.587,172.832 842.98,172.832C874.683,191.136 899.261,208.005 897.832,210.48C896.403,212.956 869.504,200.105 837.802,181.802C856.105,213.504 868.956,240.403 866.48,241.832C864.005,243.261 847.136,218.683 828.832,186.98C828.832,223.587 826.512,253.307 823.654,253.307C820.796,253.307 818.475,223.587 818.475,186.98C800.172,218.683 783.302,243.261 780.827,241.832C778.352,240.403 791.202,213.504 809.506,181.802C777.803,200.105 750.904,212.956 749.475,210.48C748.046,208.005 772.624,191.136 804.327,172.832C767.72,172.832 738,170.512 738,167.654C738,164.796 767.72,162.475 804.327,162.475C772.624,144.172 748.046,127.302 749.475,124.827C750.904,122.352 777.803,135.202 809.506,153.506C791.202,121.803 778.352,94.904 780.827,93.475C783.302,92.046 800.172,116.624 818.475,148.327Z" style="fill:none;stroke:rgb(233,237,201);stroke-width:5.77px;"/>
            </g>
            <g transform="matrix(0.499021,0,0,1.11721,451.15,25.0987)">
                <text x="148px" y="278px" style="font-family:'HappyTime', 'Happy Time';font-style:italic;font-size:138.552px;fill:rgb(254,250,224);">m<tspan x="251.637px " y="278px ">y</tspan></text>
            </g>
            <g transform="matrix(0.499021,0,0,1.11721,210.012,193.376)">
                <text x="148px" y="278px" style="font-family:'HappyTime', 'Happy Time';font-style:italic;font-size:138.552px;fill:rgb(254,250,224);">created,</text>
            </g>
            <g transform="matrix(0.407526,0,0,0.895318,65.0122,86.6138)">
                <text x="148px" y="278px" style="font-family:'HelveticaNeue-Light', 'Helvetica Neue';font-weight:300;font-size:149.5px;fill:rgb(51,51,51);">T<tspan x="218.265px 299.593px 378.08px 459.408px 504.706px 586.034px 631.332px 662.727px 749.586px 836.445px 914.933px 960.231px 1041.56px " y="278px 278px 278px 278px 278px 278px 278px 278px 278px 278px 278px 278px 278px ">ake a look at</tspan></text>
            </g>
            <g transform="matrix(0.407526,0,0,0.895318,64.0374,255.062)">
                <text x="148px" y="278px" style="font-family:'HelveticaNeue-Light', 'Helvetica Neue';font-weight:300;font-size:149.5px;fill:rgb(51,51,51);">t<tspan x="195.989px 280.008px 361.336px 409.325px 454.624px " y="278px 278px 278px 278px 278px ">hat I</tspan></text>
            </g>
            <g transform="matrix(0.407526,0,0,0.895318,457.173,255.062)">
                <text x="148px" y="278px" style="font-family:'HelveticaNeue-Light', 'Helvetica Neue';font-weight:300;font-size:149.5px;fill:rgb(51,51,51);">k<tspan x="226.487px 307.815px 389.143px 478.693px 523.991px 599.638px 680.966px 729.105px 815.964px 847.359px 878.754px 910.149px 994.167px 1081.03px " y="278px 278px 278px 278px 278px 278px 278px 278px 278px 278px 278px 278px 278px 278px ">eep scrolling!</tspan></text>
            </g>
        </g>
    </g>
</svg>
