<?xml version="1.0" encoding="UTF-8" standalone="no"?>
<!DOCTYPE svg PUBLIC "-//W3C//DTD SVG 1.1//EN" "http://www.w3.org/Graphics/SVG/1.1/DTD/svg11.dtd">
<svg width="100%" height="100%" viewBox="0 0 1024 382" version="1.1" xmlns="http://www.w3.org/2000/svg" xmlns:xlink="http://www.w3.org/1999/xlink" xml:space="preserve" xmlns:serif="http://www.serif.com/" style="fill-rule:evenodd;clip-rule:evenodd;stroke-linecap:round;stroke-linejoin:round;stroke-miterlimit:1.5;">
    <g id="Artboard1" transform="matrix(1,0,0,0.636667,0,0)">
        <rect x="0" y="0" width="1024" height="600" style="fill:none;"/>
        <g transform="matrix(0.813417,0,0,1.27762,7.58095,-235.982)">
            <path d="M453,341.5C453,318.596 434.404,300 411.5,300L128.5,300C105.596,300 87,318.596 87,341.5C87,364.404 105.596,383 128.5,383L411.5,383C434.404,383 453,364.404 453,341.5Z" style="fill:rgb(250,237,205);"/>
        </g>
        <g transform="matrix(0.499021,0,0,0.783803,12.4608,18.9167)">
            <text x="148px" y="278px" style="font-family:'HappyTime', 'Happy Time';font-style:italic;font-size:138.552px;fill:rgb(212,163,115);">W<tspan x="269.095px 330.612px " y="278px 278px ">el</tspan>come</text>
        </g>
        <g transform="matrix(0.499021,0,0,0.783803,3.17947,-114.311)">
            <text x="148px" y="278px" style="font-family:'HappyTime', 'Happy Time';font-style:italic;font-size:138.552px;fill:rgb(233,237,201);">Hello S<tspan x="564.765px 603.283px " y="278px 278px ">tr</tspan>ang<tspan x="853.785px 915.302px 955.898px " y="278px 278px 278px ">er,</tspan></text>
        </g>
        <g transform="matrix(0.836204,-0.86139,0.548419,1.31341,114.523,685.813)">
            <path d="M815.997,149.168C815.997,112.097 819.428,82 823.654,82C827.88,82 831.311,112.097 831.311,149.168C857.524,122.955 881.232,104.099 884.22,107.087C887.208,110.076 868.352,133.783 842.139,159.997C879.21,159.997 909.307,163.428 909.307,167.654C909.307,171.88 879.21,175.311 842.139,175.311C868.352,201.524 887.208,225.232 884.22,228.22C881.232,231.208 857.524,212.352 831.311,186.139C831.311,223.21 827.88,253.307 823.654,253.307C819.428,253.307 815.997,223.21 815.997,186.139C789.783,212.352 766.076,231.208 763.087,228.22C760.099,225.232 778.955,201.524 805.168,175.311C768.097,175.311 738,171.88 738,167.654C738,163.428 768.097,159.997 805.168,159.997C778.955,133.783 760.099,110.076 763.087,107.087C766.076,104.099 789.783,122.955 815.997,149.168Z" style="fill:none;stroke:rgb(233,237,201);stroke-width:3px;"/>
        </g>
        <g transform="matrix(0.434612,-0.447702,0.285037,0.682636,-327.409,779.17)">
            <path d="M813.649,150.326C813.649,112.616 818.132,82 823.654,82C829.175,82 833.658,112.616 833.658,150.326C866.316,131.471 895.071,120.045 897.832,124.827C900.593,129.609 876.32,148.799 843.662,167.654C876.32,186.509 900.593,205.699 897.832,210.48C895.071,215.262 866.316,203.837 833.658,184.982C833.658,222.692 829.175,253.307 823.654,253.307C818.132,253.307 813.649,222.692 813.649,184.982C780.992,203.837 752.236,215.262 749.475,210.48C746.715,205.699 770.987,186.509 803.645,167.654C770.987,148.799 746.715,129.609 749.475,124.827C752.236,120.045 780.992,131.471 813.649,150.326Z" style="fill:none;stroke:rgb(233,237,201);stroke-width:5.77px;"/>
        </g>
        <g transform="matrix(0.499021,0,0,0.783803,247.396,152.313)">
            <text x="148px" y="278px" style="font-family:'HappyTime', 'Happy Time';font-style:italic;font-size:138.552px;fill:rgb(254,250,224);">cur<tspan x="327.702px 366.22px " y="278px 278px ">io</tspan>sities</text>
        </g>
        <g transform="matrix(0.380865,0,0,0.598218,336.453,70.7864)">
            <g transform="matrix(1.07,0,0,1.05,-10.36,-13.9)">
                <text x="148px" y="278px" style="font-family:'HelveticaNeue-Light', 'Helvetica Neue';font-weight:300;font-size:149.5px;fill:rgb(51,51,51);">t<tspan x="195.989px " y="278px ">o</tspan></text>
            </g>
            <g transform="matrix(1.07,0,0,1.05,-20.4602,-13.9)">
                <text x="337.586px" y="278px" style="font-family:'HelveticaNeue-Light', 'Helvetica Neue';font-weight:300;font-size:149.5px;fill:rgb(51,51,51);"><tspan x="337.586px 465.857px " y="278px 278px ">my</tspan></text>
            </g>
        </g>
        <g transform="matrix(0.407526,0,0,0.628129,15.7193,195.59)">
            <text x="148px" y="278px" style="font-family:'HelveticaNeue-Light', 'Helvetica Neue';font-weight:300;font-size:149.5px;fill:rgb(51,51,51);">C<tspan x="256.985px 305.124px 386.452px 467.78px 515.769px 547.164px 631.183px " y="278px 278px 278px 278px 278px 278px 278px ">reating</tspan></text>
        </g>
        <g transform="matrix(0.407526,0,0,0.628129,747.361,187.177)">
            <text x="148px" y="278px" style="font-family:'HelveticaNeue-Light', 'Helvetica Neue';font-weight:300;font-size:149.5px;fill:rgb(51,51,51);">b<tspan x="237.55px " y="278px ">y</tspan></text>
        </g>
        <g transform="matrix(0.407526,0,0,0.628129,14.3789,311.562)">
            <text x="148px" y="278px" style="font-family:'HelveticaNeue-Light', 'Helvetica Neue';font-weight:300;font-size:149.5px;fill:rgb(51,51,51);">c<tspan x="229.328px 316.187px 444.458px 534.008px 565.403px 649.421px 680.816px 764.835px 851.694px 896.993px 944.982px 1026.31px 1107.64px 1191.66px 1236.95px 1318.28px 1402.3px 1491.85px 1537.15px 1618.48px 1702.5px 1783.82px 1815.22px 1902.08px 1988.94px 2072.96px 2154.28px " y="278px 278px 278px 278px 278px 278px 278px 278px 278px 278px 278px 278px 278px 278px 278px 278px 278px 278px 278px 278px 278px 278px 278px 278px 278px 278px 278px ">ombining tech and analogue.</tspan></text>
        </g>
        <g transform="matrix(0.407526,0,0,0.628129,510.815,60.8844)">
            <text x="148px" y="278px" style="font-family:'HelveticaNeue-Light', 'Helvetica Neue';font-weight:300;font-size:149.5px;fill:rgb(51,51,51);">p<tspan x="237.55px 324.409px 375.239px 423.229px 465.687px 552.546px 583.941px 615.336px 702.195px 747.493px 823.14px 854.535px 902.524px 983.852px " y="278px 278px 278px 278px 278px 278px 278px 278px 278px 278px 278px 278px 278px 278px ">ortfolio site.</tspan></text>
        </g>
        <g transform="matrix(0.633796,0,0,0.99549,172.709,-151.554)">
            <path d="M880.805,430.471C889.56,425.402 899.721,422.5 910.555,422.5C943.393,422.5 970.055,449.161 970.055,482C970.055,514.839 943.393,541.5 910.555,541.5C899.721,541.5 889.56,538.598 880.805,533.529C872.049,538.598 861.888,541.5 851.055,541.5C840.28,541.5 830.171,538.63 821.448,533.612L821.305,533.529C812.549,538.598 802.388,541.5 791.555,541.5C758.716,541.5 732.055,514.839 732.055,482C732.055,449.161 758.716,422.5 791.555,422.5C802.388,422.5 812.549,425.402 821.305,430.471L821.448,430.388C830.171,425.37 840.28,422.5 851.055,422.5C861.888,422.5 872.049,425.402 880.805,430.471ZM882.06,532.781L882.031,532.799L882.045,532.791L882.06,532.781ZM820.064,532.791L820.078,532.799L820.049,532.781L820.064,532.791ZM883.293,532.006L883.238,532.041L883.266,532.024L883.293,532.006ZM818.843,532.024L818.871,532.041L818.816,532.006L818.843,532.024ZM883.672,531.759L883.658,531.768L883.672,531.759ZM818.438,531.759L818.451,531.768L818.438,531.759ZM884.092,531.48L884.06,531.501L884.068,531.496L884.092,531.48ZM818.041,531.496L818.049,531.501L818.017,531.48L818.041,531.496ZM884.503,531.202L884.428,531.254L884.466,531.228L884.503,531.202ZM817.643,531.228L817.682,531.254L817.606,531.202L817.643,531.228ZM884.87,530.95L884.836,530.974L884.862,530.956L884.87,530.95ZM817.247,530.956L817.274,530.974L817.239,530.95L817.247,530.956ZM885.3,530.65L885.238,530.693L885.255,530.682L885.3,530.65ZM816.854,530.682L816.871,530.693L816.809,530.65L816.854,530.682ZM885.69,530.372L885.597,530.439L885.646,530.404L885.69,530.372ZM816.463,530.404L816.512,530.439L816.419,530.372L816.463,530.404ZM886.047,530.115L885.994,530.153L886.035,530.123L886.047,530.115ZM816.074,530.123L816.115,530.153L816.062,530.115L816.074,530.123ZM886.482,529.794L886.397,529.857L886.422,529.839L886.482,529.794ZM815.687,529.839L815.712,529.857L815.627,529.794L815.687,529.839ZM886.854,529.515L886.747,529.596L886.806,529.552L886.854,529.515ZM815.304,529.552L815.362,529.596L815.255,529.515L815.304,529.552ZM887.201,529.252L887.133,529.303L887.187,529.263L887.201,529.252ZM814.922,529.263L814.976,529.303L814.908,529.252L814.922,529.263ZM887.638,528.913L887.535,528.994L887.566,528.97L887.638,528.913ZM814.543,528.97L814.574,528.994L814.471,528.913L814.543,528.97ZM887.995,528.632L887.877,528.726L887.943,528.674L887.995,528.632ZM814.166,528.674L814.232,528.726L814.114,528.632L814.166,528.674ZM888.332,528.363L888.252,528.427L888.317,528.375L888.332,528.363ZM813.792,528.375L813.857,528.427L813.777,528.363L813.792,528.375ZM888.769,528.008L888.652,528.104L888.689,528.073L888.769,528.008ZM813.42,528.073L813.457,528.104L813.34,528.008L813.42,528.073ZM889.112,527.724L888.986,527.829L889.059,527.769L889.112,527.724ZM813.05,527.769L813.123,527.829L812.997,527.724L813.05,527.769ZM889.441,527.448L889.351,527.523L889.426,527.461L889.441,527.448ZM812.684,527.461L812.758,527.523L812.668,527.448L812.684,527.461ZM889.874,527.078L889.747,527.187L889.79,527.151L889.874,527.078ZM812.319,527.151L812.362,527.187L812.235,527.078L812.319,527.151ZM890.206,526.79L890.073,526.906L890.152,526.838L890.206,526.79ZM811.957,526.838L812.036,526.906L811.903,526.79L811.957,526.838ZM890.521,526.512L890.429,526.593L890.511,526.521L890.565,526.473L890.521,526.512ZM811.598,526.521L811.68,526.593L811.588,526.512L811.544,526.473L811.598,526.521ZM890.954,526.124L890.82,526.245L890.868,526.202L890.954,526.124ZM811.241,526.202L811.289,526.245L811.155,526.124L811.241,526.202ZM891.276,525.831L891.139,525.956L891.222,525.881L891.276,525.831ZM810.887,525.881L810.97,525.956L810.833,525.831L810.887,525.881ZM891.578,525.552L891.487,525.636L891.573,525.556L891.652,525.482L891.578,525.552ZM810.536,525.556L810.622,525.636L810.531,525.552L810.457,525.482L810.536,525.556ZM892.01,525.146L891.871,525.276L891.922,525.229L892.01,525.146ZM810.187,525.229L810.238,525.276L810.1,525.146L810.187,525.229ZM892.321,524.848L892.182,524.981L892.269,524.899L892.321,524.848ZM809.84,524.899L809.927,524.981L809.788,524.848L809.84,524.899ZM892.611,524.566L892.522,524.653L892.612,524.566L892.704,524.475L892.611,524.566ZM809.497,524.566L809.587,524.653L809.498,524.566L809.405,524.475L809.497,524.566ZM893.039,524.144L892.899,524.283L892.953,524.23L893.039,524.144ZM809.156,524.23L809.21,524.283L809.07,524.144L809.156,524.23ZM893.342,523.84L893.202,523.981L893.291,523.892L893.342,523.84ZM808.818,523.892L808.907,523.981L808.767,523.84L808.818,523.892ZM893.621,523.557L893.537,523.642L893.627,523.551L893.726,523.449L893.621,523.557ZM808.482,523.551L808.572,523.642L808.488,523.557L808.383,523.449L808.482,523.551ZM894.044,523.119L893.904,523.265L893.96,523.207L894.044,523.119ZM808.149,523.207L808.205,523.265L808.065,523.119L808.149,523.207ZM894.338,522.81L894.199,522.956L894.29,522.861L894.338,522.81ZM807.819,522.861L807.91,522.956L807.771,522.81L807.819,522.861ZM894.606,522.523L894.53,522.605L894.617,522.512L894.718,522.402L894.606,522.523ZM807.492,522.512L807.579,522.605L807.503,522.523L807.391,522.402L807.492,522.512ZM895.023,522.071L894.884,522.223L894.942,522.16L895.023,522.071ZM807.167,522.16L807.225,522.223L807.086,522.071L807.167,522.16ZM895.309,521.756L895.172,521.906L895.263,521.806L895.309,521.756ZM806.846,521.806L806.937,521.906L806.801,521.756L806.846,521.806ZM895.567,521.466L895.502,521.539L895.582,521.449L895.683,521.335L895.567,521.466ZM806.527,521.449L806.607,521.539L806.542,521.466L806.426,521.335L806.527,521.449ZM895.976,521L895.84,521.157L895.898,521.09L895.976,521ZM806.211,521.09L806.269,521.157L806.133,521L806.211,521.09ZM896.254,520.679L896.121,520.833L896.212,520.728L896.254,520.679ZM805.897,520.728L805.988,520.833L805.856,520.679L805.897,520.728ZM896.502,520.387L896.456,520.441L896.522,520.364L896.62,520.247L896.502,520.387ZM805.587,520.364L805.653,520.441L805.607,520.387L805.489,520.247L805.587,520.364ZM896.903,519.908L896.77,520.067L896.83,519.997L896.903,519.908ZM805.279,519.997L805.339,520.067L805.206,519.908L805.279,519.997ZM897.173,519.58L897.044,519.736L897.134,519.627L897.173,519.58ZM804.975,519.627L805.065,519.736L804.936,519.58L804.975,519.627ZM897.412,519.285L897.396,519.304L897.436,519.255L897.53,519.137L897.412,519.285ZM804.673,519.255L804.713,519.304L804.697,519.285L804.579,519.137L804.673,519.255ZM897.804,518.793L897.675,518.955L897.735,518.881L897.804,518.793ZM804.375,518.881L804.434,518.955L804.305,518.793L804.375,518.881ZM898.065,518.459L897.943,518.616L898.03,518.504L898.065,518.459ZM804.079,518.504L804.167,518.616L804.044,518.459L804.079,518.504ZM898.413,518.007L898.297,518.158L898.323,518.125L898.413,518.007ZM803.786,518.125L803.812,518.158L803.696,518.007L803.786,518.125ZM898.677,517.657L898.554,517.821L898.613,517.743L898.677,517.657ZM803.496,517.743L803.555,517.821L803.432,517.657L803.496,517.743ZM898.931,517.317L898.815,517.473L898.9,517.359L898.931,517.317ZM803.209,517.359L803.294,517.473L803.178,517.317L803.209,517.359ZM899.268,516.856L899.157,517.009L899.184,516.973L899.268,516.856ZM802.926,516.973L802.952,517.009L802.841,516.856L802.926,516.973ZM899.524,516.5L899.406,516.664L899.464,516.584L899.524,516.5ZM802.645,516.584L802.703,516.664L802.585,516.5L802.645,516.584ZM899.77,516.153L899.66,516.308L899.742,516.193L899.77,516.153ZM802.367,516.193L802.449,516.308L802.339,516.153L802.367,516.193ZM900.096,515.684L899.99,515.838L900.017,515.799L900.096,515.684ZM802.093,515.799L802.119,515.838L802.013,515.684L802.093,515.799ZM900.343,515.322L900.231,515.487L900.288,515.404L900.343,515.322ZM801.821,515.404L801.878,515.487L801.766,515.322L801.821,515.404ZM900.581,514.969L900.479,515.121L900.556,515.006L900.581,514.969ZM801.553,515.006L801.63,515.121L801.528,514.969L801.553,515.006ZM900.895,514.492L900.794,514.646L900.822,514.605L900.895,514.492ZM801.287,514.605L801.315,514.646L801.214,514.492L801.287,514.605ZM901.134,514.124L901.028,514.288L901.084,514.203L901.134,514.124ZM801.025,514.203L801.081,514.288L800.975,514.124L801.025,514.203ZM901.364,513.765L901.27,513.912L901.343,513.798L901.364,513.765ZM800.766,513.798L800.839,513.912L800.745,513.765L800.766,513.798ZM901.667,513.281L901.571,513.434L901.598,513.391L901.667,513.281ZM800.511,513.391L800.538,513.434L800.442,513.281L800.511,513.391ZM901.897,512.906L901.797,513.069L901.851,512.982L901.897,512.906ZM800.258,512.982L800.312,513.069L800.212,512.906L800.258,512.982ZM902.118,512.541L902.033,512.682L902.1,512.57L902.118,512.541ZM800.009,512.57L800.076,512.682L799.991,512.541L800.009,512.57ZM902.409,512.049L902.319,512.202L902.346,512.157L902.409,512.049ZM799.763,512.157L799.79,512.202L799.7,512.049L799.763,512.157ZM902.631,511.669L902.537,511.83L902.589,511.741L902.631,511.669ZM799.52,511.741L799.572,511.83L799.478,511.669L799.52,511.741ZM902.843,511.298L902.768,511.43L902.829,511.323L902.843,511.298ZM799.28,511.323L799.342,511.43L799.266,511.298L799.28,511.323ZM903.123,510.799L903.038,510.951L903.065,510.904L903.123,510.799ZM799.044,510.904L799.071,510.951L798.986,510.799L799.044,510.904ZM903.335,510.413L903.248,510.571L903.298,510.481L903.335,510.413ZM798.811,510.481L798.861,510.571L798.774,510.413L798.811,510.481ZM903.539,510.035L903.473,510.158L903.528,510.057L903.539,510.035ZM798.581,510.057L798.636,510.158L798.57,510.035L798.581,510.057ZM903.807,509.53L903.728,509.681L903.754,509.631L903.807,509.53ZM798.355,509.631L798.381,509.681L798.302,509.53L798.355,509.631ZM904.01,509.138L903.93,509.294L903.977,509.203L904.01,509.138ZM798.132,509.203L798.18,509.294L798.099,509.138L798.132,509.203ZM904.205,508.757L904.15,508.865L904.196,508.773L904.212,508.741L904.205,508.757ZM797.913,508.773L797.959,508.865L797.904,508.757L797.897,508.741L797.913,508.773ZM904.461,508.242L904.387,508.392L904.413,508.341L904.461,508.242ZM797.696,508.341L797.722,508.392L797.648,508.242L797.696,508.341ZM904.655,507.845L904.58,507.998L904.625,507.906L904.655,507.845ZM797.484,507.906L797.529,507.998L797.454,507.845L797.484,507.906ZM904.839,507.46L904.796,507.55L904.835,507.47L904.855,507.427L904.839,507.46ZM797.274,507.47L797.313,507.55L797.27,507.46L797.254,507.427L797.274,507.47ZM905.084,506.937L905.015,507.085L905.04,507.032L905.084,506.937ZM797.069,507.032L797.094,507.085L797.025,506.937L797.069,507.032ZM905.269,506.534L905.201,506.684L905.243,506.592L905.269,506.534ZM796.866,506.592L796.908,506.684L796.84,506.534L796.866,506.592ZM905.443,506.147L905.413,506.214L905.442,506.15L905.464,506.099L905.443,506.147ZM796.667,506.15L796.696,506.214L796.666,506.147L796.645,506.099L796.667,506.15ZM905.677,505.614L905.613,505.761L905.637,505.706L905.677,505.614ZM796.472,505.706L796.496,505.761L796.432,505.614L796.472,505.706ZM905.852,505.206L905.79,505.353L905.829,505.261L905.852,505.206ZM796.28,505.261L796.32,505.353L796.257,505.206L796.28,505.261ZM796.092,504.813L796.11,504.856L796.093,504.817L796.068,504.756L796.092,504.813ZM906.016,504.817L905.999,504.856L906.017,504.813L906.041,504.756L906.016,504.817ZM906.238,504.274L906.179,504.42L906.202,504.364L906.238,504.274ZM795.907,504.364L795.93,504.42L795.871,504.274L795.907,504.364ZM906.403,503.861L906.347,504.004L906.383,503.912L906.403,503.861ZM795.726,503.912L795.762,504.004L795.706,503.861L795.726,503.912ZM906.585,503.397L906.556,503.473L906.561,503.459L906.585,503.397ZM795.548,503.459L795.554,503.473L795.524,503.397L795.548,503.459ZM906.767,502.918L906.713,503.063L906.735,503.004L906.767,502.918ZM795.374,503.004L795.396,503.063L795.342,502.918L795.374,503.004ZM906.923,502.5L906.872,502.639L906.905,502.548L906.923,502.5ZM795.204,502.548L795.238,502.639L795.186,502.5L795.204,502.548ZM907.096,502.023L907.067,502.103L907.072,502.089L907.096,502.023ZM795.037,502.089L795.042,502.103L795.013,502.023L795.037,502.089ZM907.264,501.546L907.214,501.69L907.235,501.629L907.264,501.546ZM794.874,501.629L794.895,501.69L794.845,501.546L794.874,501.629ZM907.409,501.124L907.364,501.257L907.395,501.167L907.409,501.124ZM794.714,501.167L794.745,501.257L794.7,501.124L794.714,501.167ZM794.559,500.704L794.564,500.719L794.536,500.634L794.559,500.704ZM907.573,500.634L907.545,500.719L907.55,500.704L907.573,500.634ZM907.728,500.158L907.682,500.301L907.702,500.239L907.728,500.158ZM794.407,500.239L794.427,500.301L794.381,500.158L794.407,500.239ZM907.863,499.731L907.823,499.86L907.851,499.772L907.863,499.731ZM794.258,499.772L794.287,499.86L794.246,499.731L794.258,499.772ZM908.017,499.231L907.99,499.321L907.995,499.303L908.017,499.231ZM794.114,499.303L794.119,499.321L794.092,499.231L794.114,499.303ZM793.973,498.833L793.992,498.897L793.95,498.755L793.973,498.833ZM908.159,498.755L908.117,498.897L908.136,498.833L908.159,498.755ZM908.283,498.324L908.248,498.448L908.273,498.361L908.283,498.324ZM793.836,498.361L793.861,498.448L793.826,498.324L793.836,498.361ZM793.703,497.888L793.709,497.908L793.683,497.813L793.703,497.888ZM908.426,497.813L908.401,497.908L908.406,497.888L908.426,497.813ZM793.574,497.413L793.591,497.478L793.554,497.337L793.574,497.413ZM908.555,497.337L908.518,497.478L908.536,497.413L908.555,497.337ZM793.448,496.936L793.47,497.021L793.44,496.903L793.448,496.936ZM908.669,496.903L908.639,497.021L908.661,496.936L908.669,496.903ZM908.802,496.381L908.777,496.48L908.783,496.458L908.802,496.381ZM793.326,496.458L793.332,496.48L793.308,496.381L793.326,496.458ZM908.918,495.905L908.884,496.046L908.9,495.978L908.918,495.905ZM793.209,495.978L793.225,496.046L793.191,495.905L793.209,495.978ZM909.021,495.467L908.995,495.58L909.014,495.497L909.021,495.467ZM793.095,495.497L793.114,495.58L793.088,495.467L793.095,495.497ZM909.142,494.936L909.119,495.04L909.124,495.014L909.142,494.936ZM792.985,495.014L792.99,495.04L792.968,494.936L792.985,495.014ZM909.245,494.46L909.215,494.6L909.23,494.53L909.245,494.46ZM792.879,494.53L792.894,494.6L792.864,494.46L792.879,494.53ZM909.338,494.018L909.316,494.124L909.333,494.045L909.338,494.018ZM792.777,494.045L792.793,494.124L792.771,494.018L792.777,494.045ZM909.446,493.478L909.425,493.586L909.431,493.558L909.446,493.478ZM792.678,493.558L792.684,493.586L792.663,493.478L792.678,493.558ZM909.537,493.001L909.511,493.141L909.525,493.069L909.537,493.001ZM792.584,493.069L792.598,493.141L792.572,493.001L792.584,493.069ZM909.619,492.556L909.601,492.655L909.615,492.58L909.619,492.556ZM792.494,492.58L792.508,492.655L792.49,492.556L792.494,492.58ZM909.715,492.007L909.696,492.119L909.701,492.088L909.715,492.007ZM792.408,492.088L792.413,492.119L792.394,492.007L792.408,492.088ZM909.794,491.53L909.771,491.669L909.783,491.596L909.794,491.53ZM792.326,491.596L792.338,491.669L792.315,491.53L792.326,491.596ZM909.864,491.082L909.85,491.172L909.861,491.102L909.864,491.082ZM792.248,491.102L792.259,491.172L792.245,491.082L792.248,491.102ZM909.947,490.524L909.93,490.64L909.935,490.607L909.947,490.524ZM792.174,490.607L792.179,490.64L792.162,490.524L792.174,490.607ZM910.014,490.046L909.995,490.185L910.005,490.11L910.014,490.046ZM792.104,490.11L792.114,490.185L792.095,490.046L792.104,490.11ZM910.073,489.596L910.063,489.677L910.071,489.612L910.073,489.596ZM792.038,489.612L792.046,489.677L792.036,489.596L792.038,489.612ZM910.143,489.029L910.128,489.149L910.133,489.113L910.143,489.029ZM791.976,489.113L791.981,489.149L791.966,489.029L791.976,489.113ZM910.197,488.551L910.182,488.69L910.191,488.612L910.197,488.551ZM791.919,488.612L791.927,488.69L791.912,488.551L791.919,488.612ZM910.245,488.098L910.238,488.168L910.244,488.111L910.245,488.098ZM791.865,488.111L791.871,488.168L791.864,488.098L791.865,488.111ZM910.301,487.523L910.289,487.647L910.293,487.608L910.301,487.523ZM791.816,487.608L791.82,487.647L791.808,487.523L791.816,487.608ZM910.343,487.045L910.331,487.183L910.338,487.104L910.343,487.045ZM791.771,487.104L791.778,487.183L791.766,487.045L791.771,487.104ZM910.38,486.589L910.375,486.646L910.379,486.598L910.38,486.589ZM791.73,486.598L791.734,486.646L791.729,486.589L791.73,486.598ZM791.693,486.092L791.696,486.135L791.688,486.007L791.693,486.092ZM910.421,486.007L910.413,486.135L910.416,486.092L910.421,486.007ZM910.451,485.528L910.443,485.666L910.448,485.584L910.451,485.528ZM791.661,485.584L791.666,485.666L791.658,485.528L791.661,485.584ZM791.633,485.076L791.635,485.111L791.633,485.069L791.633,485.076ZM910.477,485.069L910.474,485.111L910.476,485.076L910.477,485.069ZM791.609,484.566L791.611,484.612L791.606,484.481L791.609,484.566ZM910.503,484.481L910.498,484.612L910.5,484.566L910.503,484.481ZM910.521,484L910.516,484.138L910.52,484.055L910.521,484ZM791.589,484.055L791.593,484.138L791.588,484L791.589,484.055ZM910.535,483.539L910.534,483.563L910.535,483.539ZM791.574,483.539L791.575,483.563L791.574,483.539ZM791.563,483.029L791.564,483.078L791.562,482.944L791.563,483.029ZM910.547,482.944L910.545,483.078L910.546,483.029L910.547,482.944ZM910.553,482.463L910.551,482.6L910.552,482.515L910.553,482.463ZM791.557,482.515L791.558,482.6L791.557,482.463L791.557,482.515ZM910.551,481.4L910.553,481.537L910.552,481.485L910.551,481.4ZM791.557,481.485L791.557,481.537L791.558,481.4L791.557,481.485ZM791.563,480.971L791.562,481.056L791.564,480.922L791.563,480.971ZM910.545,480.922L910.547,481.056L910.546,480.971L910.545,480.922ZM791.575,480.437L791.574,480.461L791.575,480.437ZM910.534,480.437L910.535,480.461L910.534,480.437ZM910.516,479.862L910.521,480L910.52,479.945L910.516,479.862ZM791.589,479.945L791.588,480L791.593,479.862L791.589,479.945ZM910.498,479.388L910.503,479.519L910.5,479.434L910.498,479.388ZM791.609,479.434L791.606,479.519L791.611,479.388L791.609,479.434ZM910.474,478.889L910.477,478.931L910.476,478.924L910.474,478.889ZM791.633,478.924L791.633,478.931L791.635,478.889L791.633,478.924ZM910.443,478.334L910.451,478.472L910.448,478.416L910.443,478.334ZM791.661,478.416L791.658,478.472L791.666,478.334L791.661,478.416ZM910.413,477.865L910.421,477.993L910.416,477.908L910.413,477.865ZM791.693,477.908L791.688,477.993L791.696,477.865L791.693,477.908ZM791.73,477.402L791.729,477.411L791.734,477.354L791.73,477.402ZM910.375,477.354L910.38,477.411L910.379,477.402L910.375,477.354ZM910.331,476.817L910.343,476.955L910.338,476.896L910.331,476.817ZM791.771,476.896L791.766,476.955L791.778,476.817L791.771,476.896ZM910.289,476.353L910.301,476.477L910.293,476.392L910.289,476.353ZM791.816,476.392L791.808,476.477L791.82,476.353L791.816,476.392ZM791.865,475.889L791.864,475.902L791.871,475.832L791.865,475.889ZM910.238,475.832L910.245,475.902L910.244,475.889L910.238,475.832ZM791.919,475.388L791.912,475.449L791.927,475.31L791.919,475.388ZM910.182,475.31L910.197,475.449L910.191,475.388L910.182,475.31ZM791.976,474.887L791.966,474.971L791.981,474.851L791.976,474.887ZM910.128,474.851L910.143,474.971L910.133,474.887L910.128,474.851ZM910.063,474.323L910.073,474.404L910.071,474.388L910.063,474.323ZM792.038,474.388L792.036,474.404L792.046,474.323L792.038,474.388ZM909.995,473.815L910.014,473.954L910.005,473.89L909.995,473.815ZM792.104,473.89L792.095,473.954L792.114,473.815L792.104,473.89ZM909.93,473.36L909.947,473.476L909.935,473.393L909.93,473.36ZM792.174,473.393L792.162,473.476L792.179,473.36L792.174,473.393ZM909.85,472.828L909.864,472.918L909.861,472.898L909.85,472.828ZM792.248,472.898L792.245,472.918L792.259,472.828L792.248,472.898ZM909.771,472.331L909.794,472.47L909.783,472.404L909.771,472.331ZM792.326,472.404L792.315,472.47L792.338,472.331L792.326,472.404ZM792.408,471.912L792.394,471.993L792.413,471.881L792.408,471.912ZM909.696,471.881L909.715,471.993L909.701,471.912L909.696,471.881ZM909.601,471.345L909.619,471.444L909.615,471.42L909.601,471.345ZM792.494,471.42L792.49,471.444L792.508,471.345L792.494,471.42ZM909.511,470.859L909.537,470.999L909.525,470.931L909.511,470.859ZM792.584,470.931L792.572,470.999L792.598,470.859L792.584,470.931ZM792.678,470.442L792.663,470.522L792.684,470.414L792.678,470.442ZM909.425,470.414L909.446,470.522L909.431,470.442L909.425,470.414ZM792.777,469.955L792.771,469.982L792.793,469.876L792.777,469.955ZM909.316,469.876L909.338,469.982L909.333,469.955L909.316,469.876ZM792.879,469.47L792.864,469.54L792.894,469.4L792.879,469.47ZM909.215,469.4L909.245,469.54L909.23,469.47L909.215,469.4ZM909.119,468.96L909.142,469.064L909.124,468.986L909.119,468.96ZM792.985,468.986L792.968,469.064L792.99,468.96L792.985,468.986ZM793.095,468.503L793.088,468.533L793.114,468.42L793.095,468.503ZM908.995,468.42L909.021,468.533L909.014,468.503L908.995,468.42ZM793.209,468.022L793.191,468.095L793.225,467.954L793.209,468.022ZM908.884,467.954L908.918,468.095L908.9,468.022L908.884,467.954ZM793.326,467.542L793.308,467.619L793.332,467.52L793.326,467.542ZM908.777,467.52L908.802,467.619L908.783,467.542L908.777,467.52ZM908.639,466.979L908.669,467.097L908.661,467.064L908.639,466.979ZM793.448,467.064L793.44,467.097L793.47,466.979L793.448,467.064ZM908.518,466.522L908.555,466.663L908.536,466.587L908.518,466.522ZM793.574,466.587L793.554,466.663L793.591,466.522L793.574,466.587ZM908.401,466.092L908.426,466.187L908.406,466.112L908.401,466.092ZM793.703,466.112L793.683,466.187L793.709,466.092L793.703,466.112ZM908.248,465.552L908.283,465.676L908.273,465.639L908.248,465.552ZM793.836,465.639L793.826,465.676L793.861,465.552L793.836,465.639ZM793.973,465.167L793.95,465.245L793.992,465.103L793.973,465.167ZM908.117,465.103L908.159,465.245L908.136,465.167L908.117,465.103ZM794.114,464.697L794.092,464.769L794.119,464.679L794.114,464.697ZM907.99,464.679L908.017,464.769L907.995,464.697L907.99,464.679ZM794.258,464.228L794.246,464.269L794.287,464.14L794.258,464.228ZM907.823,464.14L907.863,464.269L907.851,464.228L907.823,464.14ZM794.407,463.761L794.381,463.842L794.427,463.699L794.407,463.761ZM907.682,463.699L907.728,463.842L907.702,463.761L907.682,463.699ZM794.559,463.296L794.536,463.366L794.564,463.281L794.559,463.296ZM907.545,463.281L907.573,463.366L907.55,463.296L907.545,463.281ZM794.714,462.833L794.7,462.876L794.745,462.743L794.714,462.833ZM907.364,462.743L907.409,462.876L907.395,462.833L907.364,462.743ZM794.874,462.371L794.845,462.454L794.895,462.31L794.874,462.371ZM907.214,462.31L907.264,462.454L907.235,462.371L907.214,462.31ZM795.037,461.911L795.013,461.977L795.042,461.897L795.037,461.911ZM907.067,461.897L907.096,461.977L907.072,461.911L907.067,461.897ZM795.204,461.452L795.186,461.5L795.238,461.361L795.204,461.452ZM906.872,461.361L906.923,461.5L906.905,461.452L906.872,461.361ZM795.374,460.996L795.342,461.082L795.396,460.937L795.374,460.996ZM906.713,460.937L906.767,461.082L906.735,460.996L906.713,460.937ZM795.548,460.541L795.524,460.603L795.554,460.527L795.548,460.541ZM906.556,460.527L906.585,460.603L906.561,460.541L906.556,460.527ZM795.726,460.088L795.706,460.139L795.762,459.996L795.726,460.088ZM906.347,459.996L906.403,460.139L906.383,460.088L906.347,459.996ZM795.907,459.636L795.871,459.726L795.93,459.58L795.907,459.636ZM906.179,459.58L906.238,459.726L906.202,459.636L906.179,459.58ZM796.092,459.187L796.068,459.244L796.093,459.183L796.11,459.144L796.092,459.187ZM906.016,459.183L906.041,459.244L906.017,459.187L905.999,459.144L906.016,459.183ZM796.28,458.739L796.257,458.794L796.32,458.647L796.28,458.739ZM905.79,458.647L905.852,458.794L905.829,458.739L905.79,458.647ZM796.472,458.294L796.432,458.386L796.496,458.239L796.472,458.294ZM905.613,458.239L905.677,458.386L905.637,458.294L905.613,458.239ZM796.667,457.85L796.645,457.901L796.666,457.853L796.696,457.786L796.667,457.85ZM905.443,457.853L905.464,457.901L905.442,457.85L905.413,457.786L905.443,457.853ZM796.866,457.408L796.84,457.466L796.908,457.316L796.866,457.408ZM905.201,457.316L905.269,457.466L905.243,457.408L905.201,457.316ZM797.069,456.968L797.025,457.063L797.094,456.915L797.069,456.968ZM905.015,456.915L905.084,457.063L905.04,456.968L905.015,456.915ZM797.274,456.53L797.254,456.573L797.27,456.54L797.313,456.45L797.274,456.53ZM904.839,456.54L904.855,456.573L904.835,456.53L904.796,456.45L904.839,456.54ZM797.484,456.094L797.454,456.155L797.529,456.002L797.484,456.094ZM904.58,456.002L904.655,456.155L904.625,456.094L904.58,456.002ZM797.696,455.659L797.648,455.758L797.722,455.608L797.696,455.659ZM904.387,455.608L904.461,455.758L904.413,455.659L904.387,455.608ZM797.913,455.227L797.897,455.259L797.904,455.243L797.959,455.135L797.913,455.227ZM904.205,455.243L904.212,455.259L904.196,455.227L904.15,455.135L904.205,455.243ZM798.132,454.797L798.099,454.862L798.18,454.706L798.132,454.797ZM903.93,454.706L904.01,454.862L903.977,454.797L903.93,454.706ZM798.355,454.369L798.302,454.47L798.381,454.319L798.355,454.369ZM903.728,454.319L903.807,454.47L903.754,454.369L903.728,454.319ZM798.581,453.943L798.57,453.965L798.636,453.842L798.581,453.943ZM903.473,453.842L903.539,453.965L903.528,453.943L903.473,453.842ZM798.811,453.519L798.774,453.587L798.861,453.429L798.811,453.519ZM903.248,453.429L903.335,453.587L903.298,453.519L903.248,453.429ZM799.044,453.096L798.986,453.201L799.071,453.049L799.044,453.096ZM903.038,453.049L903.123,453.201L903.065,453.096L903.038,453.049ZM799.28,452.677L799.266,452.702L799.342,452.57L799.28,452.677ZM902.768,452.57L902.843,452.702L902.829,452.677L902.768,452.57ZM799.52,452.259L799.478,452.331L799.572,452.17L799.52,452.259ZM902.537,452.17L902.631,452.331L902.589,452.259L902.537,452.17ZM799.763,451.843L799.7,451.951L799.79,451.798L799.763,451.843ZM902.319,451.798L902.409,451.951L902.346,451.843L902.319,451.798ZM800.009,451.43L799.991,451.459L800.076,451.318L800.009,451.43ZM902.033,451.318L902.118,451.459L902.1,451.43L902.033,451.318ZM800.258,451.018L800.212,451.094L800.312,450.931L800.258,451.018ZM901.797,450.931L901.897,451.094L901.851,451.018L901.797,450.931ZM800.511,450.609L800.442,450.719L800.538,450.566L800.511,450.609ZM901.571,450.566L901.667,450.719L901.598,450.609L901.571,450.566ZM800.766,450.202L800.745,450.235L800.839,450.088L800.766,450.202ZM901.27,450.088L901.364,450.235L901.343,450.202L901.27,450.088ZM801.025,449.797L800.975,449.876L801.081,449.712L801.025,449.797ZM901.028,449.712L901.134,449.876L901.084,449.797L901.028,449.712ZM801.287,449.395L801.214,449.508L801.315,449.354L801.287,449.395ZM900.794,449.354L900.895,449.508L900.822,449.395L900.794,449.354ZM801.553,448.994L801.528,449.031L801.63,448.879L801.553,448.994ZM900.479,448.879L900.581,449.031L900.556,448.994L900.479,448.879ZM801.821,448.596L801.766,448.678L801.878,448.513L801.821,448.596ZM900.231,448.513L900.343,448.678L900.288,448.596L900.231,448.513ZM802.093,448.201L802.013,448.316L802.119,448.162L802.093,448.201ZM899.99,448.162L900.096,448.316L900.017,448.201L899.99,448.162ZM802.367,447.807L802.339,447.847L802.449,447.692L802.367,447.807ZM899.66,447.692L899.77,447.847L899.742,447.807L899.66,447.692ZM802.645,447.416L802.585,447.5L802.703,447.336L802.645,447.416ZM899.406,447.336L899.524,447.5L899.464,447.416L899.406,447.336ZM802.926,447.027L802.841,447.144L802.952,446.991L802.926,447.027ZM899.157,446.991L899.268,447.144L899.184,447.027L899.157,446.991ZM803.209,446.641L803.178,446.683L803.294,446.527L803.209,446.641ZM898.815,446.527L898.931,446.683L898.9,446.641L898.815,446.527ZM803.496,446.257L803.432,446.343L803.555,446.179L803.496,446.257ZM898.554,446.179L898.677,446.343L898.613,446.257L898.554,446.179ZM803.786,445.875L803.696,445.993L803.812,445.842L803.786,445.875ZM898.297,445.842L898.413,445.993L898.323,445.875L898.297,445.842ZM804.079,445.496L804.044,445.541L804.167,445.384L804.079,445.496ZM897.943,445.384L898.065,445.541L898.03,445.496L897.943,445.384ZM804.375,445.119L804.305,445.207L804.434,445.045L804.375,445.119ZM897.675,445.045L897.804,445.207L897.735,445.119L897.675,445.045ZM804.673,444.745L804.579,444.863L804.697,444.715L804.713,444.696L804.673,444.745ZM897.412,444.715L897.53,444.863L897.436,444.745L897.396,444.696L897.412,444.715ZM804.975,444.373L804.936,444.42L805.065,444.264L804.975,444.373ZM897.044,444.264L897.173,444.42L897.134,444.373L897.044,444.264ZM805.279,444.003L805.206,444.092L805.339,443.933L805.279,444.003ZM896.77,443.933L896.903,444.092L896.83,444.003L896.77,443.933ZM805.587,443.636L805.489,443.753L805.607,443.613L805.653,443.559L805.587,443.636ZM896.502,443.613L896.62,443.753L896.522,443.636L896.456,443.559L896.502,443.613ZM805.897,443.272L805.856,443.321L805.988,443.167L805.897,443.272ZM896.121,443.167L896.254,443.321L896.212,443.272L896.121,443.167ZM806.211,442.91L806.133,443L806.269,442.843L806.211,442.91ZM895.84,442.843L895.976,443L895.898,442.91L895.84,442.843ZM806.527,442.551L806.426,442.665L806.542,442.534L806.607,442.461L806.527,442.551ZM895.567,442.534L895.683,442.665L895.582,442.551L895.502,442.461L895.567,442.534ZM806.846,442.194L806.801,442.244L806.937,442.094L806.846,442.194ZM895.172,442.094L895.309,442.244L895.263,442.194L895.172,442.094ZM807.167,441.84L807.086,441.929L807.225,441.777L807.167,441.84ZM894.884,441.777L895.023,441.929L894.942,441.84L894.884,441.777ZM807.492,441.488L807.391,441.598L807.503,441.477L807.579,441.395L807.492,441.488ZM894.606,441.477L894.718,441.598L894.617,441.488L894.53,441.395L894.606,441.477ZM807.819,441.139L807.771,441.19L807.91,441.044L807.819,441.139ZM894.199,441.044L894.338,441.19L894.29,441.139L894.199,441.044ZM808.149,440.793L808.065,440.881L808.205,440.735L808.149,440.793ZM893.904,440.735L894.044,440.881L893.96,440.793L893.904,440.735ZM808.482,440.449L808.383,440.551L808.488,440.443L808.572,440.358L808.482,440.449ZM893.621,440.443L893.726,440.551L893.627,440.449L893.537,440.358L893.621,440.443ZM808.818,440.108L808.767,440.16L808.907,440.019L808.818,440.108ZM893.202,440.019L893.342,440.16L893.291,440.108L893.202,440.019ZM809.156,439.77L809.07,439.856L809.21,439.717L809.156,439.77ZM892.899,439.717L893.039,439.856L892.953,439.77L892.899,439.717ZM809.497,439.434L809.405,439.525L809.498,439.434L809.587,439.347L809.497,439.434ZM892.611,439.434L892.704,439.525L892.612,439.434L892.522,439.347L892.611,439.434ZM809.84,439.101L809.788,439.152L809.927,439.019L809.84,439.101ZM892.182,439.019L892.321,439.152L892.269,439.101L892.182,439.019ZM810.187,438.771L810.1,438.854L810.238,438.724L810.187,438.771ZM891.871,438.724L892.01,438.854L891.922,438.771L891.871,438.724ZM810.536,438.444L810.457,438.518L810.531,438.448L810.622,438.364L810.536,438.444ZM891.578,438.448L891.652,438.518L891.573,438.444L891.487,438.364L891.578,438.448ZM810.887,438.119L810.833,438.169L810.97,438.044L810.887,438.119ZM891.139,438.044L891.276,438.169L891.222,438.119L891.139,438.044ZM811.241,437.798L811.155,437.876L811.289,437.755L811.241,437.798ZM890.82,437.755L890.954,437.876L890.868,437.798L890.82,437.755ZM811.598,437.479L811.544,437.527L811.588,437.488L811.68,437.407L811.598,437.479ZM890.521,437.488L890.565,437.527L890.511,437.479L890.429,437.407L890.521,437.488ZM811.957,437.162L811.903,437.21L812.036,437.094L811.957,437.162ZM890.073,437.094L890.206,437.21L890.152,437.162L890.073,437.094ZM812.319,436.849L812.235,436.922L812.362,436.813L812.319,436.849ZM889.747,436.813L889.874,436.922L889.79,436.849L889.747,436.813ZM812.684,436.539L812.668,436.552L812.758,436.477L812.684,436.539ZM889.351,436.477L889.441,436.552L889.426,436.539L889.351,436.477ZM813.05,436.231L812.997,436.276L813.123,436.171L813.05,436.231ZM888.986,436.171L889.112,436.276L889.059,436.231L888.986,436.171ZM813.42,435.927L813.34,435.992L813.457,435.896L813.42,435.927ZM888.652,435.896L888.769,435.992L888.689,435.927L888.652,435.896ZM813.792,435.625L813.777,435.637L813.857,435.573L813.792,435.625ZM888.252,435.573L888.332,435.637L888.317,435.625L888.252,435.573ZM814.166,435.326L814.114,435.368L814.232,435.274L814.166,435.326ZM887.877,435.274L887.995,435.368L887.943,435.326L887.877,435.274ZM814.543,435.03L814.471,435.087L814.574,435.006L814.543,435.03ZM887.535,435.006L887.638,435.087L887.566,435.03L887.535,435.006ZM814.922,434.737L814.908,434.748L814.976,434.697L814.922,434.737ZM887.133,434.697L887.201,434.748L887.187,434.737L887.133,434.697ZM815.304,434.448L815.255,434.485L815.362,434.404L815.304,434.448ZM886.747,434.404L886.854,434.485L886.806,434.448L886.747,434.404ZM815.687,434.161L815.627,434.206L815.712,434.143L815.687,434.161ZM886.397,434.143L886.482,434.206L886.422,434.161L886.397,434.143ZM816.074,433.877L816.062,433.885L816.115,433.847L816.074,433.877ZM885.994,433.847L886.047,433.885L886.035,433.877L885.994,433.847ZM816.463,433.596L816.419,433.628L816.512,433.561L816.463,433.596ZM885.597,433.561L885.69,433.628L885.646,433.596L885.597,433.561ZM816.854,433.318L816.809,433.35L816.871,433.307L816.854,433.318ZM885.238,433.307L885.3,433.35L885.255,433.318L885.238,433.307ZM817.247,433.044L817.239,433.05L817.274,433.026L817.247,433.044ZM884.836,433.026L884.87,433.05L884.862,433.044L884.836,433.026ZM817.643,432.772L817.606,432.798L817.682,432.746L817.643,432.772ZM884.428,432.746L884.503,432.798L884.466,432.772L884.428,432.746ZM818.041,432.504L818.017,432.52L818.049,432.499L818.041,432.504ZM884.06,432.499L884.092,432.52L884.068,432.504L884.06,432.499ZM818.451,432.232L818.438,432.241L818.451,432.232ZM883.658,432.232L883.672,432.241L883.658,432.232ZM818.843,431.976L818.816,431.994L818.871,431.959L818.843,431.976ZM883.238,431.959L883.293,431.994L883.266,431.976L883.238,431.959ZM820.064,431.209L820.049,431.219L820.078,431.201L820.064,431.209ZM882.031,431.201L882.06,431.219L882.045,431.209L882.031,431.201Z" style="fill:none;stroke:rgb(233,237,201);stroke-width:4.73px;"/>
            <g transform="matrix(0.329565,0,0,0.329565,590.616,319.51)">
                <path d="M768.088,521.14C773.076,516.094 790.493,488.56 780.373,488.181C773.169,487.91 756.855,513.938 756.855,513.938L756.855,470.624C756.855,470.624 812.632,470.423 813.411,470.612L813.461,470.624C818.22,470.726 823.138,471.48 828.052,472.95C851.644,480.011 866.249,500.942 860.647,519.662C856.531,533.415 841.844,537.907 826.212,543.053C813.644,547.19 814.116,555.393 822.126,555.345C850.471,555.178 870.892,542.14 888.967,559.803C898.902,569.512 894.427,597.593 873.322,610.796C852.47,623.84 831.666,625.823 814.482,622.708C796.419,619.433 774.448,610.106 769.348,583.178C769.173,582.256 768.768,578.235 766.97,578.216C766.121,578.208 765.204,579.321 764.417,582.886C758.446,609.921 790.534,619.999 790.534,619.999L757.818,619.999C743.145,571.933 808.93,513.398 801.754,505.428C796.986,500.133 787.039,509.985 787.039,509.985C787.039,509.985 805.122,484.343 815.709,491.7C827.923,500.187 777.806,544.745 783.113,552.385C785.677,556.077 788.188,549.709 798.364,553.385C811.999,558.31 844.324,596.159 856.302,574.582C862.143,564.06 844.332,561.563 831.909,563.219C824.064,564.265 815.989,560.394 814.175,555.584C810.654,546.243 826.565,540.26 838.587,533.514C853.013,525.418 855.706,481.886 822.126,473.785C800.407,468.546 779.486,527.46 757.818,531.875C752.992,532.858 748.012,533.096 743.088,533.201L686.482,533.201L686.482,489.887C690.387,495.301 694.295,500.719 698.469,505.928C701.132,509.251 707.576,517 712.735,517.318C720.841,517.817 713.243,505.134 712.885,503.468C712.706,502.634 712.812,500.932 713.66,501.029C718.801,501.623 723.942,514.914 725.708,517.216C736.665,531.498 754.772,534.608 768.088,521.14ZM790.534,564.582C775.221,572.947 792.843,613.972 807.837,618.791C843.724,630.325 880.104,603.085 879.415,570.152C878.895,545.324 845.135,555.819 845.135,555.819C865.588,563.988 860.987,578.604 851.334,582.446C836.031,588.536 801.351,558.674 790.534,564.582Z" style="fill:rgb(51,51,51);"/>
                <path d="M805.269,444.888C792.549,423.244 777.725,451.492 763.286,448.014C752.291,445.366 753.623,428.974 754.544,417.904C754.994,412.49 751.398,410.473 747.144,409.301C732.673,405.315 720.663,441.123 731.381,443.393C738.961,444.998 738.687,447.785 738.359,449.014C737.411,452.57 733.492,452.823 731.381,451.481C720.046,444.277 725.455,400.839 750.829,406.483C757.331,407.93 761.171,416.974 758.286,426.141C762.529,421.639 766.507,416.683 767.209,410.327C769.866,386.26 741.879,367.761 718.727,379.44C696.55,390.627 694.999,414.455 698.744,426.141C705.844,448.295 726.848,472.41 742.124,496.101C746.391,502.718 750.49,519.042 736.585,512.095C727.125,507.369 723.387,502.381 716.666,493.84C717.957,494.962 729.079,504.337 731.381,498.397C733.223,493.643 727.701,487.182 725.48,483.893C719.222,474.621 710.664,459.549 704.602,450.148C692.233,430.968 684.192,401.7 701.636,377.734C715.37,358.865 758.911,354.357 774.5,379.44C792.929,409.095 756.422,425.837 767.209,439.915C778.658,454.855 805.269,397.301 805.269,397.301L805.269,444.888Z" style="fill:rgb(51,51,51);"/>
            </g>
        </g>
    </g>
</svg>
